M48
;DRILL file {PCBnew (2010-00-09 BZR 23xx)-stable} date Sun 02 Oct 2011 01:46:36 PM EDT
;FORMAT={-.-/ absolute / inch / decimal}
R,T
VER,1
FMAT,2
INCH,TZ
TCST,OFF
ICI,OFF
ATC,ON
T1C0.020
T2C0.024
T3C0.032
T4C0.040
T5C0.157
%
M47
G05
M72
T1
X2.382Y-3.386
X2.382Y-3.504
X2.382Y-4.370
X2.382Y-4.488
X2.421Y-3.366
X2.421Y-3.524
X2.421Y-4.350
X2.421Y-4.508
X2.461Y-3.366
X2.461Y-3.524
X2.461Y-4.350
X2.461Y-4.508
X2.500Y-3.366
X2.500Y-3.524
X2.500Y-4.350
X2.500Y-4.508
X2.539Y-3.386
X2.539Y-3.504
X2.539Y-4.370
X2.539Y-4.488
X3.366Y-2.402
X3.366Y-2.520
X3.366Y-3.386
X3.366Y-3.504
X3.366Y-4.370
X3.366Y-4.488
X3.366Y-5.354
X3.366Y-5.472
X3.405Y-2.382
X3.405Y-2.539
X3.405Y-3.366
X3.405Y-3.524
X3.405Y-4.350
X3.405Y-4.508
X3.405Y-5.335
X3.405Y-5.492
X3.445Y-2.382
X3.445Y-2.539
X3.445Y-3.366
X3.445Y-3.524
X3.445Y-4.350
X3.445Y-4.508
X3.445Y-5.335
X3.445Y-5.492
X3.484Y-2.382
X3.484Y-2.539
X3.484Y-3.366
X3.484Y-3.524
X3.484Y-4.350
X3.484Y-4.508
X3.484Y-5.335
X3.484Y-5.492
X3.524Y-2.402
X3.524Y-2.520
X3.524Y-3.386
X3.524Y-3.504
X3.524Y-4.370
X3.524Y-4.488
X3.524Y-5.354
X3.524Y-5.472
X4.350Y-2.402
X4.350Y-2.520
X4.350Y-3.386
X4.350Y-3.504
X4.350Y-4.370
X4.350Y-4.488
X4.350Y-5.354
X4.350Y-5.472
X4.390Y-2.382
X4.390Y-2.539
X4.390Y-3.366
X4.390Y-3.524
X4.390Y-4.350
X4.390Y-4.508
X4.390Y-5.335
X4.390Y-5.492
X4.429Y-2.382
X4.429Y-2.539
X4.429Y-3.366
X4.429Y-3.524
X4.429Y-4.350
X4.429Y-4.508
X4.429Y-5.335
X4.429Y-5.492
X4.468Y-2.382
X4.468Y-2.539
X4.468Y-3.366
X4.468Y-3.524
X4.468Y-4.350
X4.468Y-4.508
X4.468Y-5.335
X4.468Y-5.492
X4.508Y-2.402
X4.508Y-2.520
X4.508Y-3.386
X4.508Y-3.504
X4.508Y-4.370
X4.508Y-4.488
X4.508Y-5.354
X4.508Y-5.472
X5.335Y-3.386
X5.335Y-3.504
X5.335Y-4.370
X5.335Y-4.488
X5.374Y-3.366
X5.374Y-3.524
X5.374Y-4.350
X5.374Y-4.508
X5.413Y-3.366
X5.413Y-3.524
X5.413Y-4.350
X5.413Y-4.508
X5.453Y-3.366
X5.453Y-3.524
X5.453Y-4.350
X5.453Y-4.508
X5.492Y-3.386
X5.492Y-3.504
X5.492Y-4.370
X5.492Y-4.488
T2
X3.346Y-5.748
X3.878Y-3.878
X3.878Y-3.996
X3.996Y-3.996
X4.862Y-5.827
X4.980Y-5.807
X5.118Y-4.882
X5.216Y-5.354
X5.276Y-5.531
X5.315Y-5.118
X5.374Y-5.236
T3
X4.990Y-4.892
X5.699Y-4.980
X5.738Y-5.236
T4
X2.165Y-3.837
X2.165Y-3.937
X2.165Y-4.037
X3.837Y-2.165
X3.837Y-5.709
X3.937Y-2.165
X3.937Y-5.709
X4.037Y-2.165
X4.037Y-5.709
X5.709Y-3.837
X5.709Y-3.937
X5.709Y-4.037
T5
X2.362Y-2.362
X2.362Y-5.512
X5.512Y-2.362
X5.512Y-5.512
T0
M30
