G04 (created by PCBNEW-RS274X (2010-00-09 BZR 23xx)-stable) date Mon 03 Oct 2011 12:09:16 AM EDT*
G01*
G70*
G90*
%MOIN*%
G04 Gerber Fmt 3.4, Leading zero omitted, Abs format*
%FSLAX34Y34*%
G04 APERTURE LIST*
%ADD10C,0.005000*%
%ADD11C,0.015000*%
%ADD12R,0.060000X0.060000*%
%ADD13C,0.060000*%
%ADD14R,0.035000X0.055000*%
%ADD15R,0.055000X0.035000*%
%ADD16R,0.020000X0.045000*%
%ADD17R,0.039300X0.055100*%
%ADD18R,0.112000X0.039400*%
%ADD19R,0.094500X0.070900*%
%ADD20R,0.048000X0.088000*%
%ADD21R,0.141700X0.086600*%
%ADD22R,0.098400X0.169200*%
%ADD23R,0.080000X0.060000*%
%ADD24R,0.055000X0.055000*%
%ADD25C,0.236200*%
%ADD26C,0.029500*%
%ADD27C,0.039400*%
%ADD28C,0.019700*%
%ADD29C,0.078700*%
%ADD30C,0.011800*%
%ADD31C,0.039400*%
%ADD32C,0.023600*%
G04 APERTURE END LIST*
G54D10*
G54D11*
X19685Y-55118D02*
X19685Y-23622D01*
X55118Y-59055D02*
X23622Y-59055D01*
X59055Y-23622D02*
X59055Y-55118D01*
X23622Y-19685D02*
X55118Y-19685D01*
X55118Y-59055D02*
X55461Y-59040D01*
X55801Y-58995D01*
X56136Y-58920D01*
X56464Y-58817D01*
X56781Y-58686D01*
X57086Y-58527D01*
X57376Y-58343D01*
X57648Y-58133D01*
X57901Y-57901D01*
X58133Y-57648D01*
X58343Y-57376D01*
X58527Y-57086D01*
X58686Y-56781D01*
X58817Y-56464D01*
X58920Y-56136D01*
X58995Y-55801D01*
X59040Y-55461D01*
X59055Y-55118D01*
X19685Y-55118D02*
X19700Y-55461D01*
X19745Y-55801D01*
X19820Y-56136D01*
X19923Y-56464D01*
X20054Y-56781D01*
X20213Y-57086D01*
X20397Y-57376D01*
X20607Y-57648D01*
X20839Y-57901D01*
X21092Y-58133D01*
X21364Y-58343D01*
X21654Y-58527D01*
X21959Y-58686D01*
X22276Y-58817D01*
X22604Y-58920D01*
X22939Y-58995D01*
X23279Y-59040D01*
X23622Y-59055D01*
X23622Y-19685D02*
X23279Y-19700D01*
X22939Y-19745D01*
X22604Y-19820D01*
X22276Y-19923D01*
X21959Y-20054D01*
X21654Y-20213D01*
X21364Y-20397D01*
X21092Y-20607D01*
X20839Y-20839D01*
X20607Y-21092D01*
X20397Y-21364D01*
X20213Y-21654D01*
X20054Y-21959D01*
X19923Y-22276D01*
X19820Y-22604D01*
X19745Y-22939D01*
X19700Y-23279D01*
X19685Y-23622D01*
X59055Y-23622D02*
X59040Y-23279D01*
X58995Y-22939D01*
X58920Y-22604D01*
X58817Y-22276D01*
X58686Y-21959D01*
X58527Y-21654D01*
X58343Y-21364D01*
X58133Y-21092D01*
X57901Y-20839D01*
X57648Y-20607D01*
X57376Y-20397D01*
X57086Y-20213D01*
X56781Y-20054D01*
X56464Y-19923D01*
X56136Y-19820D01*
X55801Y-19745D01*
X55461Y-19700D01*
X55118Y-19685D01*
G54D12*
X38370Y-57087D03*
G54D13*
X39370Y-57087D03*
X40370Y-57087D03*
G54D14*
X50609Y-57087D03*
X51359Y-57087D03*
X52775Y-56102D03*
X53525Y-56102D03*
G54D15*
X49016Y-54743D03*
X49016Y-55493D03*
G54D16*
X50234Y-54068D03*
X50234Y-56168D03*
X50734Y-54068D03*
X51234Y-54068D03*
X51734Y-54068D03*
X50734Y-56168D03*
X51234Y-56168D03*
X51734Y-56168D03*
G54D17*
X48839Y-57323D03*
X49587Y-57323D03*
X49213Y-56457D03*
G54D18*
X34449Y-33977D03*
X34449Y-34921D03*
X34449Y-24134D03*
X34449Y-25078D03*
X44291Y-25078D03*
X44291Y-24134D03*
X44291Y-34921D03*
X44291Y-33977D03*
X54134Y-33977D03*
X54134Y-34921D03*
X54134Y-43819D03*
X54134Y-44763D03*
X44291Y-44763D03*
X44291Y-43819D03*
X44291Y-54606D03*
X44291Y-53662D03*
X34449Y-53662D03*
X34449Y-54606D03*
X34449Y-43819D03*
X34449Y-44763D03*
X24606Y-44763D03*
X24606Y-43819D03*
X24606Y-34921D03*
X24606Y-33977D03*
G54D12*
X57087Y-40370D03*
G54D13*
X57087Y-39370D03*
X57087Y-38370D03*
G54D12*
X21654Y-40370D03*
G54D13*
X21654Y-39370D03*
X21654Y-38370D03*
G54D12*
X38370Y-21654D03*
G54D13*
X39370Y-21654D03*
X40370Y-21654D03*
G54D14*
X52934Y-57087D03*
X52184Y-57087D03*
G54D19*
X51181Y-52165D03*
X51181Y-49803D03*
G54D20*
X54602Y-52204D03*
X55512Y-52204D03*
X56422Y-52204D03*
G54D21*
X55512Y-49764D03*
G54D22*
X27559Y-25247D03*
X27559Y-21997D03*
G54D23*
X47047Y-57146D03*
X47047Y-55846D03*
G54D15*
X48031Y-56281D03*
X48031Y-55531D03*
G54D24*
X56988Y-49803D03*
X57382Y-52362D03*
X49902Y-48917D03*
G54D25*
X55118Y-55118D03*
X23622Y-55118D03*
X23622Y-23622D03*
X55118Y-23622D03*
G54D26*
X45079Y-53543D03*
X44685Y-53346D03*
X44291Y-53346D03*
X43898Y-53346D03*
X43504Y-53543D03*
X43504Y-44882D03*
X43898Y-45079D03*
X44291Y-45079D03*
X45079Y-44882D03*
X44685Y-45079D03*
X53346Y-43701D03*
X53740Y-43504D03*
X54134Y-43504D03*
X54528Y-43504D03*
X54921Y-43701D03*
X45079Y-43701D03*
X44685Y-43504D03*
X44291Y-43504D03*
X43898Y-43504D03*
X43504Y-43701D03*
X54921Y-33858D03*
X54528Y-33661D03*
X54134Y-33661D03*
X53740Y-33661D03*
X53346Y-33858D03*
X54921Y-44882D03*
X54528Y-45079D03*
X54134Y-45079D03*
X53740Y-45079D03*
X53346Y-44882D03*
X45079Y-35039D03*
X44685Y-35236D03*
X44291Y-35236D03*
X43898Y-35236D03*
X43504Y-35039D03*
X54921Y-35039D03*
X54528Y-35236D03*
X54134Y-35236D03*
X53740Y-35236D03*
X53346Y-35039D03*
X45079Y-25197D03*
X44685Y-25394D03*
X44291Y-25394D03*
X43898Y-25394D03*
X43504Y-25197D03*
X45079Y-33858D03*
X44685Y-33661D03*
X44291Y-33661D03*
X43898Y-33661D03*
X43504Y-33858D03*
X35236Y-24016D03*
X34843Y-23819D03*
X34449Y-23819D03*
X34055Y-23819D03*
X33661Y-24016D03*
X45079Y-24016D03*
X44685Y-23819D03*
X44291Y-23819D03*
X43898Y-23819D03*
X43504Y-24016D03*
X35236Y-33858D03*
X34843Y-33661D03*
X34449Y-33661D03*
X34055Y-33661D03*
X33661Y-33858D03*
X35236Y-25197D03*
X34843Y-25394D03*
X34449Y-25394D03*
X34055Y-25394D03*
X33661Y-25197D03*
X25394Y-35039D03*
X25000Y-35236D03*
X24606Y-35236D03*
X24213Y-35236D03*
X23819Y-35039D03*
X35236Y-35039D03*
X34843Y-35236D03*
X34449Y-35236D03*
X34055Y-35236D03*
X33661Y-35039D03*
X25394Y-44882D03*
X25000Y-45079D03*
X24606Y-45079D03*
X24213Y-45079D03*
X23819Y-44882D03*
X25394Y-33858D03*
X25000Y-33661D03*
X24606Y-33661D03*
X24213Y-33661D03*
X23819Y-33858D03*
X35236Y-43701D03*
X34843Y-43504D03*
X34449Y-43504D03*
X34055Y-43504D03*
X33661Y-43701D03*
X25394Y-43701D03*
X25000Y-43504D03*
X24606Y-43504D03*
X24213Y-43504D03*
X23819Y-43701D03*
X35236Y-53543D03*
X34843Y-53346D03*
X34449Y-53346D03*
X34055Y-53346D03*
X33661Y-53543D03*
X33661Y-44882D03*
X34055Y-45079D03*
X34449Y-45079D03*
X34843Y-45079D03*
X35236Y-44882D03*
X35236Y-54724D03*
X34843Y-54921D03*
X34449Y-54921D03*
X34055Y-54921D03*
X33661Y-54724D03*
G54D13*
X33465Y-57480D03*
G54D27*
X51181Y-48819D03*
X52165Y-53543D03*
X48622Y-58268D03*
X38780Y-38780D03*
X39961Y-39961D03*
X38780Y-39961D03*
X53150Y-51181D03*
X49803Y-58071D03*
X52756Y-55315D03*
X53740Y-52362D03*
G54D26*
X45079Y-54724D03*
X44685Y-54921D03*
X44291Y-54921D03*
X43898Y-54921D03*
X43504Y-54724D03*
G54D28*
X44291Y-53662D02*
X43623Y-53662D01*
X44882Y-53543D02*
X45079Y-53543D01*
X44685Y-53346D02*
X44882Y-53543D01*
X43898Y-53346D02*
X44291Y-53346D01*
X43623Y-53662D02*
X43504Y-53543D01*
X44291Y-44763D02*
X43623Y-44763D01*
X43623Y-44763D02*
X43504Y-44882D01*
X43898Y-45079D02*
X44291Y-45079D01*
X44685Y-45079D02*
X44882Y-44882D01*
X44882Y-44882D02*
X45079Y-44882D01*
X54921Y-43701D02*
X54252Y-43701D01*
X53740Y-43504D02*
X54134Y-43504D01*
X54528Y-43504D02*
X54725Y-43701D01*
X54725Y-43701D02*
X54921Y-43701D01*
X44291Y-43819D02*
X43622Y-43819D01*
X44882Y-43701D02*
X45079Y-43701D01*
X44685Y-43504D02*
X44882Y-43701D01*
X43898Y-43504D02*
X44291Y-43504D01*
X43622Y-43819D02*
X43504Y-43701D01*
X45079Y-43701D02*
X53346Y-43701D01*
X54252Y-43701D02*
X54134Y-43819D01*
X54134Y-33977D02*
X53465Y-33977D01*
X54725Y-33858D02*
X54921Y-33858D01*
X54528Y-33661D02*
X54725Y-33858D01*
X53740Y-33661D02*
X54134Y-33661D01*
X53465Y-33977D02*
X53346Y-33858D01*
X54134Y-44763D02*
X53465Y-44763D01*
X54725Y-44882D02*
X54921Y-44882D01*
X54528Y-45079D02*
X54725Y-44882D01*
X53740Y-45079D02*
X54134Y-45079D01*
X53465Y-44763D02*
X53346Y-44882D01*
X54134Y-44763D02*
X58387Y-44763D01*
X58071Y-34055D02*
X57677Y-33661D01*
X58071Y-37402D02*
X58071Y-34055D01*
X57875Y-37598D02*
X58071Y-37402D01*
X56299Y-37598D02*
X57875Y-37598D01*
X56102Y-37795D02*
X56299Y-37598D01*
X56102Y-40945D02*
X56102Y-37795D01*
X56299Y-41142D02*
X56102Y-40945D01*
X58071Y-41142D02*
X56299Y-41142D01*
X58465Y-41536D02*
X58071Y-41142D01*
X58465Y-44685D02*
X58465Y-41536D01*
X58387Y-44763D02*
X58465Y-44685D01*
X44291Y-34921D02*
X43622Y-34921D01*
X44882Y-35039D02*
X45079Y-35039D01*
X44685Y-35236D02*
X44882Y-35039D01*
X43898Y-35236D02*
X44291Y-35236D01*
X43622Y-34921D02*
X43504Y-35039D01*
X54134Y-34921D02*
X53464Y-34921D01*
X54725Y-35039D02*
X54921Y-35039D01*
X54528Y-35236D02*
X54725Y-35039D01*
X53740Y-35236D02*
X54134Y-35236D01*
X53464Y-34921D02*
X53346Y-35039D01*
X44291Y-25078D02*
X43623Y-25078D01*
X44882Y-25197D02*
X45079Y-25197D01*
X44685Y-25394D02*
X44882Y-25197D01*
X43898Y-25394D02*
X44291Y-25394D01*
X43623Y-25078D02*
X43504Y-25197D01*
X44291Y-33977D02*
X43623Y-33977D01*
X44882Y-33858D02*
X45079Y-33858D01*
X44685Y-33661D02*
X44882Y-33858D01*
X43898Y-33661D02*
X44291Y-33661D01*
X43623Y-33977D02*
X43504Y-33858D01*
X34449Y-24134D02*
X33740Y-24134D01*
X35040Y-24016D02*
X35236Y-24016D01*
X34843Y-23819D02*
X35040Y-24016D01*
X34055Y-23819D02*
X34449Y-23819D01*
X33661Y-24055D02*
X33661Y-24016D01*
X33740Y-24134D02*
X33661Y-24055D01*
X44291Y-24134D02*
X43622Y-24134D01*
X44882Y-24016D02*
X45079Y-24016D01*
X44685Y-23819D02*
X44882Y-24016D01*
X43898Y-23819D02*
X44291Y-23819D01*
X43622Y-24134D02*
X43504Y-24016D01*
X34449Y-33977D02*
X33780Y-33977D01*
X35040Y-33858D02*
X35236Y-33858D01*
X34843Y-33661D02*
X35040Y-33858D01*
X34055Y-33661D02*
X34449Y-33661D01*
X33780Y-33977D02*
X33661Y-33858D01*
X34449Y-25078D02*
X33780Y-25078D01*
X35040Y-25197D02*
X35236Y-25197D01*
X34843Y-25394D02*
X35040Y-25197D01*
X34055Y-25394D02*
X34449Y-25394D01*
X33780Y-25078D02*
X33661Y-25197D01*
X24606Y-34921D02*
X23937Y-34921D01*
X25197Y-35039D02*
X25394Y-35039D01*
X25000Y-35236D02*
X25197Y-35039D01*
X24213Y-35236D02*
X24606Y-35236D01*
X23937Y-34921D02*
X23819Y-35039D01*
X34449Y-34921D02*
X33779Y-34921D01*
X35040Y-35039D02*
X35236Y-35039D01*
X34843Y-35236D02*
X35040Y-35039D01*
X34055Y-35236D02*
X34449Y-35236D01*
X33779Y-34921D02*
X33661Y-35039D01*
X24606Y-44763D02*
X23938Y-44763D01*
X25197Y-44882D02*
X25394Y-44882D01*
X25000Y-45079D02*
X25197Y-44882D01*
X24213Y-45079D02*
X24606Y-45079D01*
X23938Y-44763D02*
X23819Y-44882D01*
X24606Y-33977D02*
X23938Y-33977D01*
X25197Y-33858D02*
X25394Y-33858D01*
X25000Y-33661D02*
X25197Y-33858D01*
X24213Y-33661D02*
X24606Y-33661D01*
X23938Y-33977D02*
X23819Y-33858D01*
X24606Y-33977D02*
X20944Y-33977D01*
X20747Y-44763D02*
X24606Y-44763D01*
X20669Y-44685D02*
X20747Y-44763D01*
X20669Y-41929D02*
X20669Y-44685D01*
X21456Y-41142D02*
X20669Y-41929D01*
X22047Y-41142D02*
X21456Y-41142D01*
X22441Y-40748D02*
X22047Y-41142D01*
X22441Y-37992D02*
X22441Y-40748D01*
X22047Y-37598D02*
X22441Y-37992D01*
X20866Y-37598D02*
X22047Y-37598D01*
X20669Y-37401D02*
X20866Y-37598D01*
X20669Y-34252D02*
X20669Y-37401D01*
X20944Y-33977D02*
X20669Y-34252D01*
X34449Y-43819D02*
X33779Y-43819D01*
X35040Y-43701D02*
X35236Y-43701D01*
X34843Y-43504D02*
X35040Y-43701D01*
X34055Y-43504D02*
X34449Y-43504D01*
X33779Y-43819D02*
X33661Y-43701D01*
X24606Y-43819D02*
X23740Y-43819D01*
X25197Y-43701D02*
X25394Y-43701D01*
X25000Y-43504D02*
X25197Y-43701D01*
X24213Y-43504D02*
X24606Y-43504D01*
X23819Y-43740D02*
X23819Y-43701D01*
X23740Y-43819D02*
X23819Y-43740D01*
X34449Y-53662D02*
X33780Y-53662D01*
X35040Y-53543D02*
X35236Y-53543D01*
X34843Y-53346D02*
X35040Y-53543D01*
X34055Y-53346D02*
X34449Y-53346D01*
X33780Y-53662D02*
X33661Y-53543D01*
X34449Y-44763D02*
X35117Y-44763D01*
X33858Y-44882D02*
X33661Y-44882D01*
X34055Y-45079D02*
X33858Y-44882D01*
X34646Y-45276D02*
X34449Y-45079D01*
X34843Y-45079D02*
X34646Y-45276D01*
X35117Y-44763D02*
X35236Y-44882D01*
X34449Y-54606D02*
X33779Y-54606D01*
X35040Y-54724D02*
X35236Y-54724D01*
X34843Y-54921D02*
X35040Y-54724D01*
X34055Y-54921D02*
X34449Y-54921D01*
X33779Y-54606D02*
X33661Y-54724D01*
G54D29*
X51181Y-48819D02*
X51181Y-49803D01*
G54D30*
X51734Y-53778D02*
X51734Y-53581D01*
X48622Y-58268D02*
X48425Y-58465D01*
X48425Y-58465D02*
X39567Y-58465D01*
X39567Y-58465D02*
X39370Y-58268D01*
X39370Y-57087D02*
X39370Y-58268D01*
X51734Y-53778D02*
X51734Y-54068D01*
X51772Y-53543D02*
X52165Y-53543D01*
X51734Y-53581D02*
X51772Y-53543D01*
X38780Y-38780D02*
X38780Y-39961D01*
X38780Y-39961D02*
X39961Y-39961D01*
X56988Y-49803D02*
X55551Y-49803D01*
X55551Y-49803D02*
X55512Y-49764D01*
G54D31*
X49587Y-57323D02*
X49587Y-57855D01*
X49587Y-57855D02*
X49803Y-58071D01*
G54D29*
X51181Y-52165D02*
X51181Y-52756D01*
G54D31*
X55512Y-49764D02*
X54567Y-49764D01*
X54567Y-49764D02*
X53150Y-51181D01*
X52166Y-52165D02*
X51181Y-52165D01*
X53150Y-51181D02*
X52166Y-52165D01*
G54D30*
X48839Y-57323D02*
X49587Y-57323D01*
X57382Y-52362D02*
X56981Y-52763D01*
X56988Y-52756D02*
X56988Y-52770D01*
X56981Y-52763D02*
X56988Y-52756D01*
X50734Y-56168D02*
X50734Y-56962D01*
X50734Y-56962D02*
X50609Y-57087D01*
G54D28*
X50609Y-57087D02*
X50609Y-57696D01*
X50609Y-57696D02*
X51378Y-58465D01*
X51378Y-58465D02*
X55314Y-58465D01*
X55314Y-58465D02*
X57283Y-56496D01*
X57283Y-56496D02*
X57283Y-53065D01*
X57283Y-53065D02*
X56988Y-52770D01*
X56988Y-52770D02*
X56422Y-52204D01*
X52756Y-55315D02*
X52756Y-56083D01*
G54D30*
X53740Y-52362D02*
X53898Y-52204D01*
X54602Y-52204D02*
X53898Y-52204D01*
G54D28*
X52756Y-56083D02*
X52775Y-56102D01*
G54D30*
X51734Y-56168D02*
X52709Y-56168D01*
X52709Y-56168D02*
X52775Y-56102D01*
X54602Y-52287D02*
X54602Y-52204D01*
G54D28*
X47047Y-55846D02*
X47304Y-55846D01*
X47619Y-55531D02*
X48031Y-55531D01*
X47304Y-55846D02*
X47619Y-55531D01*
X48031Y-55531D02*
X48978Y-55531D01*
X48978Y-55531D02*
X49016Y-55493D01*
X48169Y-53543D02*
X48169Y-50334D01*
X48169Y-50334D02*
X47638Y-49803D01*
X49016Y-55493D02*
X48603Y-55493D01*
X48169Y-55059D02*
X48169Y-53543D01*
X48603Y-55493D02*
X48169Y-55059D01*
G54D29*
X27559Y-21997D02*
X27559Y-20669D01*
G54D32*
X38370Y-57087D02*
X38370Y-56118D01*
X38370Y-56118D02*
X39370Y-55118D01*
X39370Y-55118D02*
X39370Y-50000D01*
X39370Y-50000D02*
X39567Y-49803D01*
X39567Y-49803D02*
X47638Y-49803D01*
X27559Y-20669D02*
X27559Y-20276D01*
X55118Y-20276D02*
X36992Y-20276D01*
X58465Y-23623D02*
X55118Y-20276D01*
X58465Y-39961D02*
X58465Y-23623D01*
X58056Y-40370D02*
X58465Y-39961D01*
X57087Y-40370D02*
X58056Y-40370D01*
X20276Y-41732D02*
X20276Y-23622D01*
X20276Y-23622D02*
X23622Y-20276D01*
X36992Y-20276D02*
X38370Y-21654D01*
X23622Y-20276D02*
X27559Y-20276D01*
X27559Y-20276D02*
X36992Y-20276D01*
X20276Y-41732D02*
X20276Y-54921D01*
X21654Y-40370D02*
X21638Y-40370D01*
X36992Y-58465D02*
X38370Y-57087D01*
X23820Y-58465D02*
X36992Y-58465D01*
X20276Y-54921D02*
X23820Y-58465D01*
X21638Y-40370D02*
X20276Y-41732D01*
X49016Y-55493D02*
X50965Y-55493D01*
X50965Y-55493D02*
X51234Y-55762D01*
X51234Y-55762D02*
X51234Y-56168D01*
X52184Y-57087D02*
X51359Y-57087D01*
X51234Y-56168D02*
X51234Y-56549D01*
X51359Y-56674D02*
X51359Y-57087D01*
X51234Y-56549D02*
X51359Y-56674D01*
G54D30*
X52362Y-52953D02*
X53525Y-54116D01*
X53525Y-54116D02*
X53525Y-56102D01*
X51969Y-52953D02*
X51968Y-52953D01*
X51378Y-53543D02*
X50394Y-53543D01*
X51968Y-52953D02*
X51378Y-53543D01*
X50234Y-53703D02*
X50234Y-54068D01*
X50234Y-53703D02*
X50394Y-53543D01*
X51969Y-52953D02*
X52362Y-52953D01*
X52362Y-52953D02*
X52363Y-52953D01*
X53337Y-56684D02*
X53355Y-56684D01*
X53355Y-56684D02*
X53525Y-56514D01*
X53525Y-56514D02*
X53525Y-56102D01*
X53346Y-56675D02*
X53337Y-56684D01*
X53337Y-56684D02*
X52934Y-57087D01*
X52934Y-57087D02*
X52952Y-57087D01*
X50734Y-54068D02*
X50734Y-54743D01*
X50734Y-54743D02*
X49016Y-54743D01*
X49016Y-54743D02*
X50965Y-54743D01*
X51234Y-54474D02*
X51234Y-54068D01*
X50965Y-54743D02*
X51234Y-54474D01*
G54D29*
X44291Y-54921D02*
X42421Y-54921D01*
X42519Y-54823D02*
X45571Y-54823D01*
X42421Y-54921D02*
X42519Y-54823D01*
G54D28*
X48031Y-56281D02*
X48091Y-56281D01*
X48091Y-56281D02*
X48267Y-56457D01*
X47047Y-57146D02*
X47578Y-57146D01*
X47638Y-57087D02*
X47638Y-57086D01*
X47637Y-57087D02*
X47638Y-57087D01*
X47578Y-57146D02*
X47637Y-57087D01*
X47047Y-57146D02*
X46832Y-57146D01*
G54D32*
X44685Y-54999D02*
X45276Y-55590D01*
X46143Y-56457D02*
X45276Y-55590D01*
X44685Y-54999D02*
X44685Y-54921D01*
G54D28*
X46832Y-57146D02*
X46143Y-56457D01*
G54D29*
X27559Y-25247D02*
X27559Y-26575D01*
G54D32*
X44291Y-54606D02*
X43622Y-54606D01*
X44882Y-54724D02*
X45079Y-54724D01*
X44685Y-54921D02*
X44882Y-54724D01*
X43898Y-54921D02*
X44291Y-54921D01*
X43622Y-54606D02*
X43504Y-54724D01*
X27559Y-25247D02*
X29477Y-25247D01*
X40370Y-22228D02*
X40370Y-21654D01*
X40157Y-22441D02*
X40370Y-22228D01*
X37993Y-22441D02*
X40157Y-22441D01*
X36221Y-20669D02*
X37993Y-22441D01*
X31103Y-20669D02*
X36221Y-20669D01*
X29921Y-21851D02*
X31103Y-20669D01*
X29921Y-24803D02*
X29921Y-21851D01*
X29477Y-25247D02*
X29921Y-24803D01*
X48267Y-56457D02*
X49213Y-56457D01*
X47638Y-57086D02*
X48267Y-56457D01*
X40370Y-57087D02*
X40370Y-57890D01*
X46653Y-58071D02*
X47638Y-57086D01*
X40551Y-58071D02*
X46653Y-58071D01*
X40370Y-57890D02*
X40551Y-58071D01*
G54D28*
X50234Y-56168D02*
X50234Y-56459D01*
X50234Y-56459D02*
X50232Y-56457D01*
X50232Y-56457D02*
X49213Y-56457D01*
G54D10*
G36*
X36837Y-58091D02*
X37814Y-57114D01*
X37814Y-56736D01*
X37853Y-56642D01*
X37925Y-56570D01*
X37996Y-56540D01*
X37996Y-56118D01*
X38019Y-55997D01*
X38024Y-55974D01*
X38106Y-55854D01*
X38917Y-55042D01*
X38917Y-54488D01*
X25122Y-54488D01*
X24976Y-54633D01*
X25059Y-54833D01*
X25059Y-55405D01*
X24840Y-55933D01*
X24435Y-56337D01*
X23907Y-56555D01*
X23335Y-56555D01*
X23287Y-56535D01*
X23287Y-57403D01*
X23974Y-58091D01*
X36837Y-58091D01*
X36837Y-58091D01*
G37*
G54D30*
X36837Y-58091D02*
X37814Y-57114D01*
X37814Y-56736D01*
X37853Y-56642D01*
X37925Y-56570D01*
X37996Y-56540D01*
X37996Y-56118D01*
X38019Y-55997D01*
X38024Y-55974D01*
X38106Y-55854D01*
X38917Y-55042D01*
X38917Y-54488D01*
X25122Y-54488D01*
X24976Y-54633D01*
X25059Y-54833D01*
X25059Y-55405D01*
X24840Y-55933D01*
X24435Y-56337D01*
X23907Y-56555D01*
X23335Y-56555D01*
X23287Y-56535D01*
X23287Y-57403D01*
X23974Y-58091D01*
X36837Y-58091D01*
G54D10*
G36*
X38917Y-53780D02*
X38917Y-44646D01*
X29980Y-44646D01*
X29980Y-49237D01*
X25437Y-53780D01*
X38917Y-53780D01*
X38917Y-53780D01*
G37*
G54D30*
X38917Y-53780D02*
X38917Y-44646D01*
X29980Y-44646D01*
X29980Y-49237D01*
X25437Y-53780D01*
X38917Y-53780D01*
G54D10*
G36*
X38917Y-43937D02*
X38917Y-40393D01*
X38870Y-40413D01*
X38690Y-40413D01*
X38524Y-40344D01*
X38397Y-40217D01*
X38328Y-40051D01*
X38328Y-39871D01*
X38347Y-39823D01*
X22795Y-39823D01*
X22795Y-40748D01*
X22772Y-40861D01*
X22768Y-40884D01*
X22691Y-40998D01*
X22297Y-41392D01*
X22183Y-41469D01*
X22047Y-41496D01*
X21602Y-41496D01*
X21023Y-42075D01*
X21023Y-43937D01*
X38917Y-43937D01*
X38917Y-43937D01*
G37*
G54D30*
X38917Y-43937D02*
X38917Y-40393D01*
X38870Y-40413D01*
X38690Y-40413D01*
X38524Y-40344D01*
X38397Y-40217D01*
X38328Y-40051D01*
X38328Y-39871D01*
X38347Y-39823D01*
X22795Y-39823D01*
X22795Y-40748D01*
X22772Y-40861D01*
X22768Y-40884D01*
X22691Y-40998D01*
X22297Y-41392D01*
X22183Y-41469D01*
X22047Y-41496D01*
X21602Y-41496D01*
X21023Y-42075D01*
X21023Y-43937D01*
X38917Y-43937D01*
G54D10*
G36*
X22253Y-54665D02*
X22404Y-54303D01*
X22809Y-53899D01*
X23337Y-53681D01*
X23909Y-53681D01*
X24383Y-53878D01*
X29074Y-49188D01*
X29074Y-44646D01*
X20650Y-44646D01*
X20650Y-54665D01*
X22253Y-54665D01*
X22253Y-54665D01*
G37*
G54D30*
X22253Y-54665D02*
X22404Y-54303D01*
X22809Y-53899D01*
X23337Y-53681D01*
X23909Y-53681D01*
X24383Y-53878D01*
X29074Y-49188D01*
X29074Y-44646D01*
X20650Y-44646D01*
X20650Y-54665D01*
X22253Y-54665D01*
G54D10*
G36*
X38347Y-38917D02*
X38328Y-38870D01*
X38328Y-38690D01*
X38397Y-38524D01*
X38524Y-38397D01*
X38690Y-38328D01*
X38870Y-38328D01*
X38917Y-38347D01*
X38917Y-34803D01*
X21023Y-34803D01*
X21023Y-37244D01*
X22047Y-37244D01*
X22183Y-37271D01*
X22297Y-37348D01*
X22691Y-37742D01*
X22768Y-37856D01*
X22772Y-37878D01*
X22795Y-37992D01*
X22795Y-38917D01*
X38347Y-38917D01*
X38347Y-38917D01*
G37*
G54D30*
X38347Y-38917D02*
X38328Y-38870D01*
X38328Y-38690D01*
X38397Y-38524D01*
X38524Y-38397D01*
X38690Y-38328D01*
X38870Y-38328D01*
X38917Y-38347D01*
X38917Y-34803D01*
X21023Y-34803D01*
X21023Y-37244D01*
X22047Y-37244D01*
X22183Y-37271D01*
X22297Y-37348D01*
X22691Y-37742D01*
X22768Y-37856D01*
X22772Y-37878D01*
X22795Y-37992D01*
X22795Y-38917D01*
X38347Y-38917D01*
G54D10*
G36*
X38917Y-34095D02*
X38917Y-24961D01*
X30337Y-24960D01*
X29966Y-25285D01*
X29741Y-25511D01*
X29621Y-25593D01*
X29616Y-25593D01*
X28072Y-26952D01*
X28018Y-27034D01*
X27950Y-27079D01*
X29980Y-29109D01*
X29980Y-34095D01*
X38917Y-34095D01*
X38917Y-34095D01*
G37*
G54D30*
X38917Y-34095D02*
X38917Y-24961D01*
X30337Y-24960D01*
X29966Y-25285D01*
X29741Y-25511D01*
X29621Y-25593D01*
X29616Y-25593D01*
X28072Y-26952D01*
X28018Y-27034D01*
X27950Y-27079D01*
X29980Y-29109D01*
X29980Y-34095D01*
X38917Y-34095D01*
G54D10*
G36*
X29075Y-34095D02*
X29075Y-29552D01*
X24384Y-24861D01*
X23907Y-25059D01*
X23335Y-25059D01*
X22807Y-24840D01*
X22403Y-24435D01*
X22185Y-23907D01*
X22185Y-23681D01*
X20745Y-23681D01*
X20650Y-23776D01*
X20650Y-34095D01*
X29075Y-34095D01*
X29075Y-34095D01*
G37*
G54D30*
X29075Y-34095D02*
X29075Y-29552D01*
X24384Y-24861D01*
X23907Y-25059D01*
X23335Y-25059D01*
X22807Y-24840D01*
X22403Y-24435D01*
X22185Y-23907D01*
X22185Y-23681D01*
X20745Y-23681D01*
X20650Y-23776D01*
X20650Y-34095D01*
X29075Y-34095D01*
G54D10*
G36*
X53823Y-24252D02*
X53681Y-23907D01*
X53681Y-23335D01*
X53900Y-22807D01*
X54305Y-22403D01*
X54833Y-22185D01*
X55405Y-22185D01*
X55903Y-22391D01*
X56240Y-22024D01*
X56240Y-21926D01*
X54963Y-20650D01*
X37894Y-20650D01*
X38342Y-21098D01*
X38721Y-21098D01*
X38815Y-21137D01*
X38887Y-21209D01*
X38926Y-21303D01*
X38926Y-21313D01*
X39056Y-21183D01*
X39260Y-21099D01*
X39481Y-21099D01*
X39685Y-21184D01*
X39841Y-21340D01*
X39870Y-21410D01*
X39900Y-21339D01*
X40056Y-21183D01*
X40260Y-21099D01*
X40481Y-21099D01*
X40685Y-21184D01*
X40841Y-21340D01*
X40925Y-21544D01*
X40925Y-21765D01*
X40840Y-21969D01*
X40744Y-22065D01*
X40744Y-22228D01*
X40720Y-22348D01*
X40716Y-22372D01*
X40634Y-22493D01*
X40421Y-22705D01*
X40301Y-22787D01*
X40277Y-22791D01*
X40157Y-22815D01*
X37993Y-22815D01*
X37850Y-22787D01*
X37809Y-22759D01*
X37728Y-22705D01*
X36066Y-21043D01*
X31257Y-21043D01*
X30374Y-21926D01*
X30374Y-24252D01*
X53823Y-24252D01*
X53823Y-24252D01*
G37*
G54D30*
X53823Y-24252D02*
X53681Y-23907D01*
X53681Y-23335D01*
X53900Y-22807D01*
X54305Y-22403D01*
X54833Y-22185D01*
X55405Y-22185D01*
X55903Y-22391D01*
X56240Y-22024D01*
X56240Y-21926D01*
X54963Y-20650D01*
X37894Y-20650D01*
X38342Y-21098D01*
X38721Y-21098D01*
X38815Y-21137D01*
X38887Y-21209D01*
X38926Y-21303D01*
X38926Y-21313D01*
X39056Y-21183D01*
X39260Y-21099D01*
X39481Y-21099D01*
X39685Y-21184D01*
X39841Y-21340D01*
X39870Y-21410D01*
X39900Y-21339D01*
X40056Y-21183D01*
X40260Y-21099D01*
X40481Y-21099D01*
X40685Y-21184D01*
X40841Y-21340D01*
X40925Y-21544D01*
X40925Y-21765D01*
X40840Y-21969D01*
X40744Y-22065D01*
X40744Y-22228D01*
X40720Y-22348D01*
X40716Y-22372D01*
X40634Y-22493D01*
X40421Y-22705D01*
X40301Y-22787D01*
X40277Y-22791D01*
X40157Y-22815D01*
X37993Y-22815D01*
X37850Y-22787D01*
X37809Y-22759D01*
X37728Y-22705D01*
X36066Y-21043D01*
X31257Y-21043D01*
X30374Y-21926D01*
X30374Y-24252D01*
X53823Y-24252D01*
G54D10*
G36*
X50728Y-34095D02*
X50728Y-27534D01*
X53302Y-24960D01*
X39823Y-24960D01*
X39823Y-34095D01*
X50728Y-34095D01*
X50728Y-34095D01*
G37*
G54D30*
X50728Y-34095D02*
X50728Y-27534D01*
X53302Y-24960D01*
X39823Y-24960D01*
X39823Y-34095D01*
X50728Y-34095D01*
G54D10*
G36*
X55748Y-38917D02*
X55748Y-37795D01*
X55775Y-37659D01*
X55852Y-37545D01*
X56048Y-37348D01*
X56124Y-37297D01*
X56164Y-37271D01*
X56299Y-37244D01*
X57717Y-37244D01*
X57717Y-34803D01*
X39823Y-34803D01*
X39823Y-38917D01*
X55748Y-38917D01*
X55748Y-38917D01*
G37*
G54D30*
X55748Y-38917D02*
X55748Y-37795D01*
X55775Y-37659D01*
X55852Y-37545D01*
X56048Y-37348D01*
X56124Y-37297D01*
X56164Y-37271D01*
X56299Y-37244D01*
X57717Y-37244D01*
X57717Y-34803D01*
X39823Y-34803D01*
X39823Y-38917D01*
X55748Y-38917D01*
G54D10*
G36*
X58091Y-34095D02*
X58091Y-23777D01*
X56813Y-22500D01*
X56717Y-22500D01*
X56357Y-22859D01*
X56555Y-23337D01*
X56555Y-23909D01*
X56336Y-24437D01*
X55931Y-24841D01*
X55403Y-25059D01*
X54831Y-25059D01*
X54355Y-24861D01*
X51634Y-27583D01*
X51634Y-34095D01*
X58091Y-34095D01*
X58091Y-34095D01*
G37*
G54D30*
X58091Y-34095D02*
X58091Y-23777D01*
X56813Y-22500D01*
X56717Y-22500D01*
X56357Y-22859D01*
X56555Y-23337D01*
X56555Y-23909D01*
X56336Y-24437D01*
X55931Y-24841D01*
X55403Y-25059D01*
X54831Y-25059D01*
X54355Y-24861D01*
X51634Y-27583D01*
X51634Y-34095D01*
X58091Y-34095D01*
G54D10*
G36*
X58602Y-47776D02*
X58602Y-44646D01*
X51634Y-44646D01*
X51634Y-47776D01*
X58602Y-47776D01*
X58602Y-47776D01*
G37*
G54D30*
X58602Y-47776D02*
X58602Y-44646D01*
X51634Y-44646D01*
X51634Y-47776D01*
X58602Y-47776D01*
G54D10*
G36*
X58111Y-43937D02*
X58111Y-41682D01*
X57925Y-41496D01*
X56299Y-41496D01*
X56164Y-41469D01*
X56125Y-41442D01*
X56048Y-41392D01*
X55852Y-41195D01*
X55775Y-41081D01*
X55748Y-40945D01*
X55748Y-39823D01*
X40393Y-39823D01*
X40413Y-39871D01*
X40413Y-40051D01*
X40344Y-40217D01*
X40217Y-40344D01*
X40051Y-40413D01*
X39871Y-40413D01*
X39823Y-40393D01*
X39823Y-43937D01*
X58111Y-43937D01*
X58111Y-43937D01*
G37*
G54D30*
X58111Y-43937D02*
X58111Y-41682D01*
X57925Y-41496D01*
X56299Y-41496D01*
X56164Y-41469D01*
X56125Y-41442D01*
X56048Y-41392D01*
X55852Y-41195D01*
X55775Y-41081D01*
X55748Y-40945D01*
X55748Y-39823D01*
X40393Y-39823D01*
X40413Y-39871D01*
X40413Y-40051D01*
X40344Y-40217D01*
X40217Y-40344D01*
X40051Y-40413D01*
X39871Y-40413D01*
X39823Y-40393D01*
X39823Y-43937D01*
X58111Y-43937D01*
G54D10*
G36*
X47618Y-53780D02*
X47618Y-53543D01*
X47618Y-50562D01*
X47429Y-50374D01*
X39941Y-50374D01*
X39941Y-53780D01*
X47618Y-53780D01*
X47618Y-53780D01*
G37*
G54D30*
X47618Y-53780D02*
X47618Y-53543D01*
X47618Y-50562D01*
X47429Y-50374D01*
X39941Y-50374D01*
X39941Y-53780D01*
X47618Y-53780D01*
G54D10*
G36*
X48720Y-53558D02*
X50257Y-52021D01*
X50257Y-51721D01*
X50326Y-51555D01*
X50453Y-51428D01*
X50619Y-51359D01*
X50919Y-51359D01*
X51122Y-51156D01*
X51122Y-50637D01*
X50978Y-50609D01*
X50619Y-50609D01*
X50453Y-50540D01*
X50326Y-50413D01*
X50257Y-50247D01*
X50257Y-49644D01*
X49537Y-49644D01*
X49371Y-49575D01*
X49244Y-49448D01*
X49175Y-49282D01*
X49175Y-48552D01*
X49244Y-48386D01*
X49371Y-48259D01*
X49537Y-48190D01*
X50267Y-48190D01*
X50433Y-48259D01*
X50507Y-48333D01*
X50583Y-48221D01*
X50857Y-48037D01*
X51122Y-47984D01*
X51122Y-44646D01*
X39823Y-44646D01*
X39823Y-49232D01*
X47638Y-49232D01*
X47857Y-49275D01*
X48042Y-49399D01*
X48099Y-49484D01*
X48556Y-49942D01*
X48559Y-49944D01*
X48678Y-50123D01*
X48712Y-50298D01*
X48720Y-50333D01*
X48719Y-50333D01*
X48720Y-50334D01*
X48720Y-53543D01*
X48720Y-53558D01*
X48720Y-53558D01*
G37*
G54D30*
X48720Y-53558D02*
X50257Y-52021D01*
X50257Y-51721D01*
X50326Y-51555D01*
X50453Y-51428D01*
X50619Y-51359D01*
X50919Y-51359D01*
X51122Y-51156D01*
X51122Y-50637D01*
X50978Y-50609D01*
X50619Y-50609D01*
X50453Y-50540D01*
X50326Y-50413D01*
X50257Y-50247D01*
X50257Y-49644D01*
X49537Y-49644D01*
X49371Y-49575D01*
X49244Y-49448D01*
X49175Y-49282D01*
X49175Y-48552D01*
X49244Y-48386D01*
X49371Y-48259D01*
X49537Y-48190D01*
X50267Y-48190D01*
X50433Y-48259D01*
X50507Y-48333D01*
X50583Y-48221D01*
X50857Y-48037D01*
X51122Y-47984D01*
X51122Y-44646D01*
X39823Y-44646D01*
X39823Y-49232D01*
X47638Y-49232D01*
X47857Y-49275D01*
X48042Y-49399D01*
X48099Y-49484D01*
X48556Y-49942D01*
X48559Y-49944D01*
X48678Y-50123D01*
X48712Y-50298D01*
X48720Y-50333D01*
X48719Y-50333D01*
X48720Y-50334D01*
X48720Y-53543D01*
X48720Y-53558D01*
G54D10*
G36*
X47579Y-58150D02*
X47579Y-57887D01*
X47538Y-57904D01*
X47356Y-57904D01*
X47202Y-57905D01*
X47088Y-57791D01*
X47088Y-57187D01*
X47088Y-57105D01*
X47006Y-57105D01*
X46302Y-57105D01*
X46188Y-56991D01*
X46189Y-56755D01*
X46259Y-56587D01*
X46387Y-56458D01*
X46556Y-56388D01*
X46562Y-56388D01*
X46502Y-56363D01*
X46430Y-56291D01*
X46391Y-56197D01*
X46391Y-55495D01*
X46430Y-55401D01*
X46502Y-55329D01*
X46596Y-55290D01*
X47359Y-55290D01*
X47368Y-55281D01*
X47444Y-55230D01*
X47484Y-55204D01*
X47561Y-55188D01*
X47579Y-55171D01*
X47579Y-54488D01*
X45273Y-54488D01*
X45196Y-54565D01*
X44332Y-54565D01*
X44250Y-54565D01*
X43386Y-54565D01*
X43309Y-54488D01*
X43273Y-54488D01*
X43273Y-54500D01*
X43272Y-54488D01*
X39823Y-54488D01*
X39823Y-56666D01*
X39886Y-56661D01*
X39837Y-56612D01*
X39895Y-56554D01*
X39944Y-56603D01*
X39958Y-56451D01*
X40212Y-56346D01*
X40507Y-56342D01*
X40782Y-56451D01*
X40796Y-56603D01*
X40370Y-57029D01*
X40312Y-57087D01*
X40370Y-57145D01*
X40796Y-57571D01*
X40782Y-57723D01*
X40528Y-57828D01*
X40233Y-57832D01*
X39958Y-57723D01*
X39944Y-57571D01*
X39895Y-57620D01*
X39837Y-57562D01*
X39886Y-57513D01*
X39823Y-57507D01*
X39823Y-58150D01*
X40233Y-58150D01*
X40854Y-58150D01*
X40854Y-57513D01*
X40428Y-57087D01*
X40854Y-56661D01*
X41006Y-56675D01*
X41111Y-56929D01*
X41115Y-57224D01*
X41006Y-57499D01*
X40854Y-57513D01*
X40854Y-58150D01*
X44136Y-58150D01*
X44136Y-55262D01*
X43640Y-55261D01*
X43472Y-55191D01*
X43343Y-55063D01*
X43273Y-54894D01*
X43273Y-54760D01*
X43272Y-54761D01*
X43273Y-54712D01*
X43273Y-54760D01*
X43386Y-54647D01*
X44250Y-54647D01*
X44250Y-55148D01*
X44136Y-55262D01*
X44136Y-58150D01*
X44446Y-58150D01*
X44446Y-55262D01*
X44332Y-55148D01*
X44332Y-54647D01*
X45196Y-54647D01*
X45309Y-54760D01*
X45309Y-54712D01*
X45310Y-54761D01*
X45309Y-54760D01*
X45309Y-54894D01*
X45239Y-55063D01*
X45110Y-55191D01*
X44942Y-55261D01*
X44446Y-55262D01*
X44446Y-58150D01*
X46892Y-58150D01*
X46892Y-57905D01*
X46738Y-57904D01*
X46556Y-57904D01*
X46387Y-57834D01*
X46259Y-57705D01*
X46189Y-57537D01*
X46188Y-57301D01*
X46302Y-57187D01*
X47006Y-57187D01*
X47006Y-57791D01*
X46892Y-57905D01*
X46892Y-58150D01*
X47579Y-58150D01*
X47579Y-58150D01*
G37*
G54D30*
X47579Y-58150D02*
X47579Y-57887D01*
X47538Y-57904D01*
X47356Y-57904D01*
X47202Y-57905D01*
X47088Y-57791D01*
X47088Y-57187D01*
X47088Y-57105D01*
X47006Y-57105D01*
X46302Y-57105D01*
X46188Y-56991D01*
X46189Y-56755D01*
X46259Y-56587D01*
X46387Y-56458D01*
X46556Y-56388D01*
X46562Y-56388D01*
X46502Y-56363D01*
X46430Y-56291D01*
X46391Y-56197D01*
X46391Y-55495D01*
X46430Y-55401D01*
X46502Y-55329D01*
X46596Y-55290D01*
X47359Y-55290D01*
X47368Y-55281D01*
X47444Y-55230D01*
X47484Y-55204D01*
X47561Y-55188D01*
X47579Y-55171D01*
X47579Y-54488D01*
X45273Y-54488D01*
X45196Y-54565D01*
X44332Y-54565D01*
X44250Y-54565D01*
X43386Y-54565D01*
X43309Y-54488D01*
X43273Y-54488D01*
X43273Y-54500D01*
X43272Y-54488D01*
X39823Y-54488D01*
X39823Y-56666D01*
X39886Y-56661D01*
X39837Y-56612D01*
X39895Y-56554D01*
X39944Y-56603D01*
X39958Y-56451D01*
X40212Y-56346D01*
X40507Y-56342D01*
X40782Y-56451D01*
X40796Y-56603D01*
X40370Y-57029D01*
X40312Y-57087D01*
X40370Y-57145D01*
X40796Y-57571D01*
X40782Y-57723D01*
X40528Y-57828D01*
X40233Y-57832D01*
X39958Y-57723D01*
X39944Y-57571D01*
X39895Y-57620D01*
X39837Y-57562D01*
X39886Y-57513D01*
X39823Y-57507D01*
X39823Y-58150D01*
X40233Y-58150D01*
X40854Y-58150D01*
X40854Y-57513D01*
X40428Y-57087D01*
X40854Y-56661D01*
X41006Y-56675D01*
X41111Y-56929D01*
X41115Y-57224D01*
X41006Y-57499D01*
X40854Y-57513D01*
X40854Y-58150D01*
X44136Y-58150D01*
X44136Y-55262D01*
X43640Y-55261D01*
X43472Y-55191D01*
X43343Y-55063D01*
X43273Y-54894D01*
X43273Y-54760D01*
X43272Y-54761D01*
X43273Y-54712D01*
X43273Y-54760D01*
X43386Y-54647D01*
X44250Y-54647D01*
X44250Y-55148D01*
X44136Y-55262D01*
X44136Y-58150D01*
X44446Y-58150D01*
X44446Y-55262D01*
X44332Y-55148D01*
X44332Y-54647D01*
X45196Y-54647D01*
X45309Y-54760D01*
X45309Y-54712D01*
X45310Y-54761D01*
X45309Y-54760D01*
X45309Y-54894D01*
X45239Y-55063D01*
X45110Y-55191D01*
X44942Y-55261D01*
X44446Y-55262D01*
X44446Y-58150D01*
X46892Y-58150D01*
X46892Y-57905D01*
X46738Y-57904D01*
X46556Y-57904D01*
X46387Y-57834D01*
X46259Y-57705D01*
X46189Y-57537D01*
X46188Y-57301D01*
X46302Y-57187D01*
X47006Y-57187D01*
X47006Y-57791D01*
X46892Y-57905D01*
X46892Y-58150D01*
X47579Y-58150D01*
G54D10*
G36*
X58586Y-50532D02*
X58586Y-48287D01*
X51823Y-48287D01*
X51963Y-48495D01*
X52027Y-48819D01*
X52027Y-49184D01*
X52036Y-49193D01*
X52105Y-49359D01*
X52105Y-50247D01*
X52036Y-50413D01*
X51916Y-50532D01*
X58586Y-50532D01*
X58586Y-50532D01*
G37*
G54D30*
X58586Y-50532D02*
X58586Y-48287D01*
X51823Y-48287D01*
X51963Y-48495D01*
X52027Y-48819D01*
X52027Y-49184D01*
X52036Y-49193D01*
X52105Y-49359D01*
X52105Y-50247D01*
X52036Y-50413D01*
X51916Y-50532D01*
X58586Y-50532D01*
G54D10*
G36*
X58593Y-56043D02*
X58602Y-56001D01*
X58602Y-51043D01*
X55768Y-51043D01*
X55768Y-51508D01*
X55803Y-51508D01*
X55897Y-51547D01*
X55969Y-51619D01*
X56008Y-51713D01*
X56008Y-52695D01*
X55969Y-52789D01*
X55897Y-52861D01*
X55803Y-52900D01*
X55768Y-52900D01*
X55768Y-53831D01*
X55933Y-53900D01*
X56337Y-54305D01*
X56555Y-54833D01*
X56555Y-55405D01*
X56473Y-55601D01*
X56914Y-56043D01*
X58593Y-56043D01*
X58593Y-56043D01*
G37*
G54D30*
X58593Y-56043D02*
X58602Y-56001D01*
X58602Y-51043D01*
X55768Y-51043D01*
X55768Y-51508D01*
X55803Y-51508D01*
X55897Y-51547D01*
X55969Y-51619D01*
X56008Y-51713D01*
X56008Y-52695D01*
X55969Y-52789D01*
X55897Y-52861D01*
X55803Y-52900D01*
X55768Y-52900D01*
X55768Y-53831D01*
X55933Y-53900D01*
X56337Y-54305D01*
X56555Y-54833D01*
X56555Y-55405D01*
X56473Y-55601D01*
X56914Y-56043D01*
X58593Y-56043D01*
G54D10*
G36*
X54495Y-53820D02*
X54833Y-53681D01*
X55256Y-53681D01*
X55256Y-52900D01*
X55221Y-52900D01*
X55127Y-52861D01*
X55055Y-52789D01*
X55016Y-52695D01*
X55016Y-51713D01*
X55055Y-51619D01*
X55127Y-51547D01*
X55221Y-51508D01*
X55256Y-51508D01*
X55256Y-51043D01*
X53928Y-51042D01*
X53471Y-51499D01*
X53470Y-51502D01*
X52823Y-52148D01*
X54495Y-53820D01*
X54495Y-53820D01*
G37*
G54D30*
X54495Y-53820D02*
X54833Y-53681D01*
X55256Y-53681D01*
X55256Y-52900D01*
X55221Y-52900D01*
X55127Y-52861D01*
X55055Y-52789D01*
X55016Y-52695D01*
X55016Y-51713D01*
X55055Y-51619D01*
X55127Y-51547D01*
X55221Y-51508D01*
X55256Y-51508D01*
X55256Y-51043D01*
X53928Y-51042D01*
X53471Y-51499D01*
X53470Y-51502D01*
X52823Y-52148D01*
X54495Y-53820D01*
M02*
