G04 (created by PCBNEW-RS274X (2010-00-09 BZR 23xx)-stable) date Sun 02 Oct 2011 01:46:57 PM EDT*
G01*
G70*
G90*
%MOIN*%
G04 Gerber Fmt 3.4, Leading zero omitted, Abs format*
%FSLAX34Y34*%
G04 APERTURE LIST*
%ADD10C,0.005000*%
%ADD11C,0.015000*%
%ADD12R,0.060000X0.060000*%
%ADD13C,0.060000*%
%ADD14R,0.055000X0.055000*%
%ADD15C,0.236200*%
%ADD16C,0.029500*%
%ADD17C,0.039400*%
%ADD18C,0.019700*%
%ADD19C,0.011800*%
%ADD20C,0.039400*%
%ADD21C,0.023600*%
G04 APERTURE END LIST*
G54D10*
G54D11*
X19685Y-55118D02*
X19685Y-23622D01*
X55118Y-59055D02*
X23622Y-59055D01*
X59055Y-23622D02*
X59055Y-55118D01*
X23622Y-19685D02*
X55118Y-19685D01*
X55118Y-59055D02*
X55461Y-59040D01*
X55801Y-58995D01*
X56136Y-58920D01*
X56464Y-58817D01*
X56781Y-58686D01*
X57086Y-58527D01*
X57376Y-58343D01*
X57648Y-58133D01*
X57901Y-57901D01*
X58133Y-57648D01*
X58343Y-57376D01*
X58527Y-57086D01*
X58686Y-56781D01*
X58817Y-56464D01*
X58920Y-56136D01*
X58995Y-55801D01*
X59040Y-55461D01*
X59055Y-55118D01*
X19685Y-55118D02*
X19700Y-55461D01*
X19745Y-55801D01*
X19820Y-56136D01*
X19923Y-56464D01*
X20054Y-56781D01*
X20213Y-57086D01*
X20397Y-57376D01*
X20607Y-57648D01*
X20839Y-57901D01*
X21092Y-58133D01*
X21364Y-58343D01*
X21654Y-58527D01*
X21959Y-58686D01*
X22276Y-58817D01*
X22604Y-58920D01*
X22939Y-58995D01*
X23279Y-59040D01*
X23622Y-59055D01*
X23622Y-19685D02*
X23279Y-19700D01*
X22939Y-19745D01*
X22604Y-19820D01*
X22276Y-19923D01*
X21959Y-20054D01*
X21654Y-20213D01*
X21364Y-20397D01*
X21092Y-20607D01*
X20839Y-20839D01*
X20607Y-21092D01*
X20397Y-21364D01*
X20213Y-21654D01*
X20054Y-21959D01*
X19923Y-22276D01*
X19820Y-22604D01*
X19745Y-22939D01*
X19700Y-23279D01*
X19685Y-23622D01*
X59055Y-23622D02*
X59040Y-23279D01*
X58995Y-22939D01*
X58920Y-22604D01*
X58817Y-22276D01*
X58686Y-21959D01*
X58527Y-21654D01*
X58343Y-21364D01*
X58133Y-21092D01*
X57901Y-20839D01*
X57648Y-20607D01*
X57376Y-20397D01*
X57086Y-20213D01*
X56781Y-20054D01*
X56464Y-19923D01*
X56136Y-19820D01*
X55801Y-19745D01*
X55461Y-19700D01*
X55118Y-19685D01*
G54D12*
X38370Y-57087D03*
G54D13*
X39370Y-57087D03*
X40370Y-57087D03*
G54D12*
X57087Y-40370D03*
G54D13*
X57087Y-39370D03*
X57087Y-38370D03*
G54D12*
X21654Y-40370D03*
G54D13*
X21654Y-39370D03*
X21654Y-38370D03*
G54D12*
X38370Y-21654D03*
G54D13*
X39370Y-21654D03*
X40370Y-21654D03*
G54D14*
X56988Y-49803D03*
X57382Y-52362D03*
X49902Y-48917D03*
G54D15*
X55118Y-55118D03*
X23622Y-55118D03*
X23622Y-23622D03*
X55118Y-23622D03*
G54D16*
X45079Y-53543D03*
X44685Y-53346D03*
X44291Y-53346D03*
X43898Y-53346D03*
X43504Y-53543D03*
X43504Y-44882D03*
X43898Y-45079D03*
X44291Y-45079D03*
X45079Y-44882D03*
X44685Y-45079D03*
X53346Y-43701D03*
X53740Y-43504D03*
X54134Y-43504D03*
X54528Y-43504D03*
X54921Y-43701D03*
X45079Y-43701D03*
X44685Y-43504D03*
X44291Y-43504D03*
X43898Y-43504D03*
X43504Y-43701D03*
X54921Y-33858D03*
X54528Y-33661D03*
X54134Y-33661D03*
X53740Y-33661D03*
X53346Y-33858D03*
X54921Y-44882D03*
X54528Y-45079D03*
X54134Y-45079D03*
X53740Y-45079D03*
X53346Y-44882D03*
X45079Y-35039D03*
X44685Y-35236D03*
X44291Y-35236D03*
X43898Y-35236D03*
X43504Y-35039D03*
X54921Y-35039D03*
X54528Y-35236D03*
X54134Y-35236D03*
X53740Y-35236D03*
X53346Y-35039D03*
X45079Y-25197D03*
X44685Y-25394D03*
X44291Y-25394D03*
X43898Y-25394D03*
X43504Y-25197D03*
X45079Y-33858D03*
X44685Y-33661D03*
X44291Y-33661D03*
X43898Y-33661D03*
X43504Y-33858D03*
X35236Y-24016D03*
X34843Y-23819D03*
X34449Y-23819D03*
X34055Y-23819D03*
X33661Y-24016D03*
X45079Y-24016D03*
X44685Y-23819D03*
X44291Y-23819D03*
X43898Y-23819D03*
X43504Y-24016D03*
X35236Y-33858D03*
X34843Y-33661D03*
X34449Y-33661D03*
X34055Y-33661D03*
X33661Y-33858D03*
X35236Y-25197D03*
X34843Y-25394D03*
X34449Y-25394D03*
X34055Y-25394D03*
X33661Y-25197D03*
X25394Y-35039D03*
X25000Y-35236D03*
X24606Y-35236D03*
X24213Y-35236D03*
X23819Y-35039D03*
X35236Y-35039D03*
X34843Y-35236D03*
X34449Y-35236D03*
X34055Y-35236D03*
X33661Y-35039D03*
X25394Y-44882D03*
X25000Y-45079D03*
X24606Y-45079D03*
X24213Y-45079D03*
X23819Y-44882D03*
X25394Y-33858D03*
X25000Y-33661D03*
X24606Y-33661D03*
X24213Y-33661D03*
X23819Y-33858D03*
X35236Y-43701D03*
X34843Y-43504D03*
X34449Y-43504D03*
X34055Y-43504D03*
X33661Y-43701D03*
X25394Y-43701D03*
X25000Y-43504D03*
X24606Y-43504D03*
X24213Y-43504D03*
X23819Y-43701D03*
X35236Y-53543D03*
X34843Y-53346D03*
X34449Y-53346D03*
X34055Y-53346D03*
X33661Y-53543D03*
X33661Y-44882D03*
X34055Y-45079D03*
X34449Y-45079D03*
X34843Y-45079D03*
X35236Y-44882D03*
X35236Y-54724D03*
X34843Y-54921D03*
X34449Y-54921D03*
X34055Y-54921D03*
X33661Y-54724D03*
G54D13*
X33465Y-57480D03*
G54D17*
X51181Y-48819D03*
X52165Y-53543D03*
X48622Y-58268D03*
X38780Y-38780D03*
X39961Y-39961D03*
X38780Y-39961D03*
X53150Y-51181D03*
X49803Y-58071D03*
X52756Y-55315D03*
X53740Y-52362D03*
G54D16*
X45079Y-54724D03*
X44685Y-54921D03*
X44291Y-54921D03*
X43898Y-54921D03*
X43504Y-54724D03*
G54D18*
X44291Y-53346D02*
X44291Y-45079D01*
X44291Y-53346D02*
X44685Y-53346D01*
X43701Y-53346D02*
X43898Y-53346D01*
X43504Y-53543D02*
X43701Y-53346D01*
X43504Y-44882D02*
X43701Y-45079D01*
X43701Y-45079D02*
X43898Y-45079D01*
X44291Y-45079D02*
X44685Y-45079D01*
X53346Y-43701D02*
X53543Y-43504D01*
X53543Y-43504D02*
X53740Y-43504D01*
X54134Y-43504D02*
X54528Y-43504D01*
X44291Y-43504D02*
X44685Y-43504D01*
X43701Y-43504D02*
X43898Y-43504D01*
X43504Y-43701D02*
X43701Y-43504D01*
X54134Y-33661D02*
X54528Y-33661D01*
X53543Y-33661D02*
X53740Y-33661D01*
X53346Y-33858D02*
X53543Y-33661D01*
X54134Y-45079D02*
X54528Y-45079D01*
X53740Y-45276D02*
X53740Y-45079D01*
X53346Y-44882D02*
X53740Y-45276D01*
X44291Y-35236D02*
X44685Y-35236D01*
X43701Y-35236D02*
X43898Y-35236D01*
X43504Y-35039D02*
X43701Y-35236D01*
X54134Y-35236D02*
X54528Y-35236D01*
X53740Y-35433D02*
X53740Y-35236D01*
X53346Y-35039D02*
X53740Y-35433D01*
X44291Y-25394D02*
X44685Y-25394D01*
X43701Y-25394D02*
X43898Y-25394D01*
X43504Y-25197D02*
X43701Y-25394D01*
X44291Y-33661D02*
X44685Y-33661D01*
X43701Y-33661D02*
X43898Y-33661D01*
X43504Y-33858D02*
X43701Y-33661D01*
X34449Y-23819D02*
X34843Y-23819D01*
X33858Y-23819D02*
X34055Y-23819D01*
X33661Y-24016D02*
X33858Y-23819D01*
X44291Y-23819D02*
X44685Y-23819D01*
X43701Y-23819D02*
X43898Y-23819D01*
X43504Y-24016D02*
X43701Y-23819D01*
X34449Y-33661D02*
X34843Y-33661D01*
X33858Y-33661D02*
X34055Y-33661D01*
X33661Y-33858D02*
X33858Y-33661D01*
X34449Y-25394D02*
X34843Y-25394D01*
X33858Y-25394D02*
X34055Y-25394D01*
X33661Y-25197D02*
X33858Y-25394D01*
X24606Y-35236D02*
X25000Y-35236D01*
X24213Y-35433D02*
X24213Y-35236D01*
X23819Y-35039D02*
X24213Y-35433D01*
X34449Y-35236D02*
X34843Y-35236D01*
X33858Y-35236D02*
X34055Y-35236D01*
X33661Y-35039D02*
X33858Y-35236D01*
X24606Y-45079D02*
X25000Y-45079D01*
X24016Y-45079D02*
X24213Y-45079D01*
X23819Y-44882D02*
X24016Y-45079D01*
X24606Y-33661D02*
X25000Y-33661D01*
X24016Y-33661D02*
X24213Y-33661D01*
X23819Y-33858D02*
X24016Y-33661D01*
X34449Y-43504D02*
X34843Y-43504D01*
X33858Y-43504D02*
X34055Y-43504D01*
X33661Y-43701D02*
X33858Y-43504D01*
X24606Y-43504D02*
X25000Y-43504D01*
X24016Y-43504D02*
X24213Y-43504D01*
X23819Y-43701D02*
X24016Y-43504D01*
X34449Y-53346D02*
X34843Y-53346D01*
X33858Y-53346D02*
X34055Y-53346D01*
X33661Y-53543D02*
X33858Y-53346D01*
X34449Y-45079D02*
X34055Y-45079D01*
X35039Y-45079D02*
X34843Y-45079D01*
X35236Y-44882D02*
X35039Y-45079D01*
X49902Y-48917D02*
X51083Y-48917D01*
X51083Y-48917D02*
X51181Y-48819D01*
X48425Y-57480D02*
X50787Y-55118D01*
X50787Y-55118D02*
X50787Y-53150D01*
X51181Y-48819D02*
X51181Y-52756D01*
X51181Y-52756D02*
X50787Y-53150D01*
X34449Y-54921D02*
X34843Y-54921D01*
X33858Y-54921D02*
X34055Y-54921D01*
X33661Y-54724D02*
X33858Y-54921D01*
X48425Y-57481D02*
X48425Y-57480D01*
X47638Y-58268D02*
X48425Y-57481D01*
X34253Y-58268D02*
X47638Y-58268D01*
X33465Y-57480D02*
X34253Y-58268D01*
G54D19*
X51575Y-53543D02*
X51181Y-53937D01*
X51181Y-55512D02*
X49016Y-57677D01*
X51181Y-53937D02*
X51181Y-55512D01*
X52165Y-53543D02*
X51575Y-53543D01*
X49016Y-57677D02*
X48622Y-58071D01*
X48622Y-58071D02*
X48622Y-58268D01*
X39370Y-57087D02*
X39370Y-55538D01*
X39073Y-40254D02*
X38780Y-39961D01*
X39073Y-55241D02*
X39073Y-40254D01*
X39370Y-55538D02*
X39073Y-55241D01*
X39370Y-21654D02*
X39370Y-23202D01*
X39073Y-38487D02*
X38780Y-38780D01*
X39073Y-23499D02*
X39073Y-38487D01*
X39370Y-23202D02*
X39073Y-23499D01*
X21654Y-39370D02*
X23031Y-39370D01*
X55539Y-39370D02*
X57087Y-39370D01*
X55242Y-39667D02*
X55539Y-39370D01*
X40255Y-39667D02*
X55242Y-39667D01*
X39961Y-39961D02*
X40255Y-39667D01*
X38486Y-39667D02*
X38780Y-39961D01*
X23328Y-39667D02*
X38486Y-39667D01*
X23031Y-39370D02*
X23328Y-39667D01*
G54D20*
X53150Y-53740D02*
X53150Y-51181D01*
X51969Y-54921D02*
X53150Y-53740D01*
X51969Y-55905D02*
X51969Y-54921D01*
X49803Y-58071D02*
X51969Y-55905D01*
G54D19*
X52756Y-55315D02*
X54528Y-53543D01*
X54528Y-53543D02*
X54528Y-53150D01*
X54528Y-53150D02*
X53740Y-52362D01*
G54D21*
X44291Y-54921D02*
X44685Y-54921D01*
X43701Y-54921D02*
X43898Y-54921D01*
X43504Y-54724D02*
X43701Y-54921D01*
X40370Y-57087D02*
X40370Y-56118D01*
X39370Y-55118D02*
X39370Y-39370D01*
X40370Y-56118D02*
X39370Y-55118D01*
X40370Y-21654D02*
X40370Y-22622D01*
X40370Y-22622D02*
X39370Y-23622D01*
X39370Y-23622D02*
X39370Y-39370D01*
X57087Y-38370D02*
X56118Y-38370D01*
X56118Y-38370D02*
X55118Y-39370D01*
X55118Y-39370D02*
X39370Y-39370D01*
X22622Y-38370D02*
X23622Y-39370D01*
X22622Y-38370D02*
X21654Y-38370D01*
X23622Y-39370D02*
X39370Y-39370D01*
G54D10*
G36*
X50433Y-53780D02*
X50433Y-53150D01*
X50460Y-53014D01*
X50537Y-52900D01*
X50827Y-52610D01*
X50827Y-49271D01*
X50421Y-49271D01*
X50394Y-49337D01*
X50322Y-49409D01*
X50228Y-49448D01*
X49576Y-49448D01*
X49482Y-49409D01*
X49410Y-49337D01*
X49371Y-49243D01*
X49371Y-48591D01*
X49410Y-48497D01*
X49482Y-48425D01*
X49576Y-48386D01*
X50228Y-48386D01*
X50322Y-48425D01*
X50394Y-48497D01*
X50421Y-48563D01*
X50798Y-48563D01*
X50925Y-48436D01*
X51091Y-48367D01*
X51122Y-48367D01*
X51122Y-44646D01*
X39823Y-44646D01*
X39823Y-53780D01*
X50433Y-53780D01*
X50433Y-53780D01*
G37*
G54D19*
X50433Y-53780D02*
X50433Y-53150D01*
X50460Y-53014D01*
X50537Y-52900D01*
X50827Y-52610D01*
X50827Y-49271D01*
X50421Y-49271D01*
X50394Y-49337D01*
X50322Y-49409D01*
X50228Y-49448D01*
X49576Y-49448D01*
X49482Y-49409D01*
X49410Y-49337D01*
X49371Y-49243D01*
X49371Y-48591D01*
X49410Y-48497D01*
X49482Y-48425D01*
X49576Y-48386D01*
X50228Y-48386D01*
X50322Y-48425D01*
X50394Y-48497D01*
X50421Y-48563D01*
X50798Y-48563D01*
X50925Y-48436D01*
X51091Y-48367D01*
X51122Y-48367D01*
X51122Y-44646D01*
X39823Y-44646D01*
X39823Y-53780D01*
X50433Y-53780D01*
G54D10*
G36*
X58602Y-54665D02*
X58602Y-44646D01*
X51634Y-44646D01*
X51634Y-50861D01*
X52697Y-51924D01*
X52697Y-51181D01*
X52698Y-51175D01*
X52698Y-51091D01*
X52729Y-51014D01*
X52731Y-51008D01*
X52734Y-51002D01*
X52767Y-50925D01*
X52827Y-50864D01*
X52830Y-50861D01*
X52833Y-50858D01*
X52894Y-50798D01*
X52971Y-50765D01*
X52977Y-50762D01*
X52983Y-50760D01*
X53060Y-50729D01*
X53144Y-50729D01*
X53150Y-50728D01*
X53155Y-50729D01*
X53240Y-50729D01*
X53316Y-50760D01*
X53323Y-50762D01*
X53328Y-50765D01*
X53406Y-50798D01*
X53466Y-50858D01*
X53470Y-50861D01*
X53472Y-50864D01*
X53533Y-50925D01*
X53565Y-51002D01*
X53569Y-51008D01*
X53570Y-51014D01*
X53602Y-51091D01*
X53602Y-51175D01*
X53603Y-51181D01*
X53603Y-51929D01*
X53650Y-51910D01*
X53830Y-51910D01*
X53996Y-51979D01*
X54123Y-52106D01*
X54192Y-52272D01*
X54192Y-52368D01*
X54748Y-52925D01*
X54751Y-52927D01*
X54819Y-53029D01*
X54843Y-53150D01*
X54843Y-53543D01*
X54842Y-53543D01*
X54843Y-53544D01*
X54819Y-53664D01*
X54798Y-53695D01*
X54833Y-53681D01*
X55405Y-53681D01*
X55933Y-53900D01*
X56337Y-54305D01*
X56485Y-54665D01*
X56662Y-54665D01*
X56662Y-50334D01*
X56568Y-50295D01*
X56496Y-50223D01*
X56457Y-50129D01*
X56457Y-49477D01*
X56496Y-49383D01*
X56568Y-49311D01*
X56662Y-49272D01*
X57314Y-49272D01*
X57408Y-49311D01*
X57480Y-49383D01*
X57519Y-49477D01*
X57519Y-50129D01*
X57480Y-50223D01*
X57408Y-50295D01*
X57314Y-50334D01*
X56662Y-50334D01*
X56662Y-54665D01*
X57056Y-54665D01*
X57056Y-52893D01*
X56962Y-52854D01*
X56890Y-52782D01*
X56851Y-52688D01*
X56851Y-52036D01*
X56890Y-51942D01*
X56962Y-51870D01*
X57056Y-51831D01*
X57708Y-51831D01*
X57802Y-51870D01*
X57874Y-51942D01*
X57913Y-52036D01*
X57913Y-52688D01*
X57874Y-52782D01*
X57802Y-52854D01*
X57708Y-52893D01*
X57056Y-52893D01*
X57056Y-54665D01*
X58602Y-54665D01*
X58602Y-54665D01*
G37*
G54D19*
X58602Y-54665D02*
X58602Y-44646D01*
X51634Y-44646D01*
X51634Y-50861D01*
X52697Y-51924D01*
X52697Y-51181D01*
X52698Y-51175D01*
X52698Y-51091D01*
X52729Y-51014D01*
X52731Y-51008D01*
X52734Y-51002D01*
X52767Y-50925D01*
X52827Y-50864D01*
X52830Y-50861D01*
X52833Y-50858D01*
X52894Y-50798D01*
X52971Y-50765D01*
X52977Y-50762D01*
X52983Y-50760D01*
X53060Y-50729D01*
X53144Y-50729D01*
X53150Y-50728D01*
X53155Y-50729D01*
X53240Y-50729D01*
X53316Y-50760D01*
X53323Y-50762D01*
X53328Y-50765D01*
X53406Y-50798D01*
X53466Y-50858D01*
X53470Y-50861D01*
X53472Y-50864D01*
X53533Y-50925D01*
X53565Y-51002D01*
X53569Y-51008D01*
X53570Y-51014D01*
X53602Y-51091D01*
X53602Y-51175D01*
X53603Y-51181D01*
X53603Y-51929D01*
X53650Y-51910D01*
X53830Y-51910D01*
X53996Y-51979D01*
X54123Y-52106D01*
X54192Y-52272D01*
X54192Y-52368D01*
X54748Y-52925D01*
X54751Y-52927D01*
X54819Y-53029D01*
X54843Y-53150D01*
X54843Y-53543D01*
X54842Y-53543D01*
X54843Y-53544D01*
X54819Y-53664D01*
X54798Y-53695D01*
X54833Y-53681D01*
X55405Y-53681D01*
X55933Y-53900D01*
X56337Y-54305D01*
X56485Y-54665D01*
X56662Y-54665D01*
X56662Y-50334D01*
X56568Y-50295D01*
X56496Y-50223D01*
X56457Y-50129D01*
X56457Y-49477D01*
X56496Y-49383D01*
X56568Y-49311D01*
X56662Y-49272D01*
X57314Y-49272D01*
X57408Y-49311D01*
X57480Y-49383D01*
X57519Y-49477D01*
X57519Y-50129D01*
X57480Y-50223D01*
X57408Y-50295D01*
X57314Y-50334D01*
X56662Y-50334D01*
X56662Y-54665D01*
X57056Y-54665D01*
X57056Y-52893D01*
X56962Y-52854D01*
X56890Y-52782D01*
X56851Y-52688D01*
X56851Y-52036D01*
X56890Y-51942D01*
X56962Y-51870D01*
X57056Y-51831D01*
X57708Y-51831D01*
X57802Y-51870D01*
X57874Y-51942D01*
X57913Y-52036D01*
X57913Y-52688D01*
X57874Y-52782D01*
X57802Y-52854D01*
X57708Y-52893D01*
X57056Y-52893D01*
X57056Y-54665D01*
X58602Y-54665D01*
G54D10*
G36*
X58602Y-43937D02*
X58602Y-39823D01*
X57459Y-39823D01*
X57532Y-39853D01*
X57604Y-39925D01*
X57643Y-40019D01*
X57643Y-40721D01*
X57604Y-40815D01*
X57532Y-40887D01*
X57438Y-40926D01*
X56736Y-40926D01*
X56642Y-40887D01*
X56570Y-40815D01*
X56531Y-40721D01*
X56531Y-40019D01*
X56570Y-39925D01*
X56642Y-39853D01*
X56714Y-39823D01*
X55531Y-39823D01*
X55465Y-39890D01*
X55363Y-39958D01*
X55242Y-39982D01*
X40413Y-39982D01*
X40413Y-40051D01*
X40344Y-40217D01*
X40217Y-40344D01*
X40051Y-40413D01*
X39871Y-40413D01*
X39823Y-40393D01*
X39823Y-43937D01*
X58602Y-43937D01*
X58602Y-43937D01*
G37*
G54D19*
X58602Y-43937D02*
X58602Y-39823D01*
X57459Y-39823D01*
X57532Y-39853D01*
X57604Y-39925D01*
X57643Y-40019D01*
X57643Y-40721D01*
X57604Y-40815D01*
X57532Y-40887D01*
X57438Y-40926D01*
X56736Y-40926D01*
X56642Y-40887D01*
X56570Y-40815D01*
X56531Y-40721D01*
X56531Y-40019D01*
X56570Y-39925D01*
X56642Y-39853D01*
X56714Y-39823D01*
X55531Y-39823D01*
X55465Y-39890D01*
X55363Y-39958D01*
X55242Y-39982D01*
X40413Y-39982D01*
X40413Y-40051D01*
X40344Y-40217D01*
X40217Y-40344D01*
X40051Y-40413D01*
X39871Y-40413D01*
X39823Y-40393D01*
X39823Y-43937D01*
X58602Y-43937D01*
G54D10*
G36*
X58602Y-38917D02*
X58602Y-34803D01*
X39823Y-34803D01*
X39823Y-38917D01*
X55042Y-38917D01*
X55853Y-38106D01*
X55974Y-38024D01*
X55997Y-38019D01*
X56118Y-37996D01*
X56676Y-37996D01*
X56773Y-37899D01*
X56977Y-37815D01*
X57198Y-37815D01*
X57402Y-37900D01*
X57558Y-38056D01*
X57642Y-38260D01*
X57642Y-38481D01*
X57557Y-38685D01*
X57401Y-38841D01*
X57330Y-38870D01*
X57402Y-38900D01*
X57419Y-38917D01*
X58602Y-38917D01*
X58602Y-38917D01*
G37*
G54D19*
X58602Y-38917D02*
X58602Y-34803D01*
X39823Y-34803D01*
X39823Y-38917D01*
X55042Y-38917D01*
X55853Y-38106D01*
X55974Y-38024D01*
X55997Y-38019D01*
X56118Y-37996D01*
X56676Y-37996D01*
X56773Y-37899D01*
X56977Y-37815D01*
X57198Y-37815D01*
X57402Y-37900D01*
X57558Y-38056D01*
X57642Y-38260D01*
X57642Y-38481D01*
X57557Y-38685D01*
X57401Y-38841D01*
X57330Y-38870D01*
X57402Y-38900D01*
X57419Y-38917D01*
X58602Y-38917D01*
G54D10*
G36*
X58602Y-34095D02*
X58697Y-23217D01*
X58631Y-22888D01*
X58243Y-22499D01*
X56717Y-22499D01*
X56357Y-22858D01*
X56555Y-23337D01*
X56555Y-23909D01*
X56336Y-24437D01*
X55931Y-24841D01*
X55403Y-25059D01*
X54831Y-25059D01*
X54354Y-24861D01*
X51634Y-27583D01*
X51634Y-34095D01*
X58602Y-34095D01*
X58602Y-34095D01*
G37*
G54D19*
X58602Y-34095D02*
X58697Y-23217D01*
X58631Y-22888D01*
X58243Y-22499D01*
X56717Y-22499D01*
X56357Y-22858D01*
X56555Y-23337D01*
X56555Y-23909D01*
X56336Y-24437D01*
X55931Y-24841D01*
X55403Y-25059D01*
X54831Y-25059D01*
X54354Y-24861D01*
X51634Y-27583D01*
X51634Y-34095D01*
X58602Y-34095D01*
G54D10*
G36*
X50728Y-34095D02*
X50728Y-27534D01*
X53302Y-24960D01*
X39823Y-24960D01*
X39823Y-34095D01*
X50728Y-34095D01*
X50728Y-34095D01*
G37*
G54D19*
X50728Y-34095D02*
X50728Y-27534D01*
X53302Y-24960D01*
X39823Y-24960D01*
X39823Y-34095D01*
X50728Y-34095D01*
G54D10*
G36*
X53823Y-24252D02*
X53681Y-23907D01*
X53681Y-23335D01*
X53900Y-22807D01*
X54305Y-22403D01*
X54833Y-22185D01*
X55405Y-22185D01*
X55891Y-22386D01*
X56240Y-22023D01*
X56240Y-20531D01*
X23878Y-20531D01*
X23878Y-22185D01*
X23909Y-22185D01*
X24437Y-22404D01*
X24841Y-22809D01*
X25059Y-23337D01*
X25059Y-23909D01*
X24976Y-24106D01*
X25122Y-24252D01*
X38758Y-24252D01*
X38758Y-23499D01*
X38782Y-23378D01*
X38850Y-23276D01*
X39055Y-23071D01*
X39055Y-22124D01*
X38926Y-21995D01*
X38926Y-22005D01*
X38887Y-22099D01*
X38815Y-22171D01*
X38721Y-22210D01*
X38019Y-22210D01*
X37925Y-22171D01*
X37853Y-22099D01*
X37814Y-22005D01*
X37814Y-21303D01*
X37853Y-21209D01*
X37925Y-21137D01*
X38019Y-21098D01*
X38721Y-21098D01*
X38815Y-21137D01*
X38887Y-21209D01*
X38926Y-21303D01*
X38926Y-21313D01*
X39056Y-21183D01*
X39260Y-21099D01*
X39481Y-21099D01*
X39685Y-21184D01*
X39841Y-21340D01*
X39870Y-21410D01*
X39900Y-21339D01*
X40056Y-21183D01*
X40260Y-21099D01*
X40481Y-21099D01*
X40685Y-21184D01*
X40841Y-21340D01*
X40925Y-21544D01*
X40925Y-21765D01*
X40840Y-21969D01*
X40744Y-22065D01*
X40744Y-22622D01*
X40720Y-22742D01*
X40716Y-22766D01*
X40634Y-22887D01*
X39744Y-23776D01*
X39744Y-24252D01*
X53823Y-24252D01*
X53823Y-24252D01*
G37*
G54D19*
X53823Y-24252D02*
X53681Y-23907D01*
X53681Y-23335D01*
X53900Y-22807D01*
X54305Y-22403D01*
X54833Y-22185D01*
X55405Y-22185D01*
X55891Y-22386D01*
X56240Y-22023D01*
X56240Y-20531D01*
X23878Y-20531D01*
X23878Y-22185D01*
X23909Y-22185D01*
X24437Y-22404D01*
X24841Y-22809D01*
X25059Y-23337D01*
X25059Y-23909D01*
X24976Y-24106D01*
X25122Y-24252D01*
X38758Y-24252D01*
X38758Y-23499D01*
X38782Y-23378D01*
X38850Y-23276D01*
X39055Y-23071D01*
X39055Y-22124D01*
X38926Y-21995D01*
X38926Y-22005D01*
X38887Y-22099D01*
X38815Y-22171D01*
X38721Y-22210D01*
X38019Y-22210D01*
X37925Y-22171D01*
X37853Y-22099D01*
X37814Y-22005D01*
X37814Y-21303D01*
X37853Y-21209D01*
X37925Y-21137D01*
X38019Y-21098D01*
X38721Y-21098D01*
X38815Y-21137D01*
X38887Y-21209D01*
X38926Y-21303D01*
X38926Y-21313D01*
X39056Y-21183D01*
X39260Y-21099D01*
X39481Y-21099D01*
X39685Y-21184D01*
X39841Y-21340D01*
X39870Y-21410D01*
X39900Y-21339D01*
X40056Y-21183D01*
X40260Y-21099D01*
X40481Y-21099D01*
X40685Y-21184D01*
X40841Y-21340D01*
X40925Y-21544D01*
X40925Y-21765D01*
X40840Y-21969D01*
X40744Y-22065D01*
X40744Y-22622D01*
X40720Y-22742D01*
X40716Y-22766D01*
X40634Y-22887D01*
X39744Y-23776D01*
X39744Y-24252D01*
X53823Y-24252D01*
G54D10*
G36*
X38758Y-34095D02*
X38758Y-24961D01*
X25831Y-24961D01*
X29980Y-29109D01*
X29980Y-34095D01*
X38758Y-34095D01*
X38758Y-34095D01*
G37*
G54D19*
X38758Y-34095D02*
X38758Y-24961D01*
X25831Y-24961D01*
X29980Y-29109D01*
X29980Y-34095D01*
X38758Y-34095D01*
G54D10*
G36*
X29075Y-34095D02*
X29075Y-29552D01*
X24384Y-24861D01*
X23907Y-25059D01*
X23335Y-25059D01*
X22807Y-24840D01*
X22403Y-24435D01*
X22185Y-23907D01*
X22185Y-23681D01*
X20138Y-23681D01*
X20138Y-34095D01*
X29075Y-34095D01*
X29075Y-34095D01*
G37*
G54D19*
X29075Y-34095D02*
X29075Y-29552D01*
X24384Y-24861D01*
X23907Y-25059D01*
X23335Y-25059D01*
X22807Y-24840D01*
X22403Y-24435D01*
X22185Y-23907D01*
X22185Y-23681D01*
X20138Y-23681D01*
X20138Y-34095D01*
X29075Y-34095D01*
G54D10*
G36*
X38347Y-38917D02*
X38328Y-38870D01*
X38328Y-38690D01*
X38397Y-38524D01*
X38524Y-38397D01*
X38690Y-38328D01*
X38758Y-38328D01*
X38758Y-34803D01*
X20138Y-34803D01*
X20138Y-38917D01*
X21321Y-38917D01*
X21340Y-38899D01*
X21410Y-38869D01*
X21339Y-38840D01*
X21183Y-38684D01*
X21099Y-38480D01*
X21099Y-38259D01*
X21184Y-38055D01*
X21340Y-37899D01*
X21544Y-37815D01*
X21765Y-37815D01*
X21969Y-37900D01*
X22065Y-37996D01*
X22622Y-37996D01*
X22742Y-38019D01*
X22766Y-38024D01*
X22886Y-38106D01*
X23697Y-38917D01*
X38347Y-38917D01*
X38347Y-38917D01*
G37*
G54D19*
X38347Y-38917D02*
X38328Y-38870D01*
X38328Y-38690D01*
X38397Y-38524D01*
X38524Y-38397D01*
X38690Y-38328D01*
X38758Y-38328D01*
X38758Y-34803D01*
X20138Y-34803D01*
X20138Y-38917D01*
X21321Y-38917D01*
X21340Y-38899D01*
X21410Y-38869D01*
X21339Y-38840D01*
X21183Y-38684D01*
X21099Y-38480D01*
X21099Y-38259D01*
X21184Y-38055D01*
X21340Y-37899D01*
X21544Y-37815D01*
X21765Y-37815D01*
X21969Y-37900D01*
X22065Y-37996D01*
X22622Y-37996D01*
X22742Y-38019D01*
X22766Y-38024D01*
X22886Y-38106D01*
X23697Y-38917D01*
X38347Y-38917D01*
G54D10*
G36*
X38758Y-43937D02*
X38758Y-40413D01*
X38690Y-40413D01*
X38524Y-40344D01*
X38397Y-40217D01*
X38328Y-40051D01*
X38328Y-39982D01*
X23328Y-39982D01*
X23207Y-39958D01*
X23105Y-39890D01*
X23038Y-39823D01*
X22026Y-39823D01*
X22099Y-39853D01*
X22171Y-39925D01*
X22210Y-40019D01*
X22210Y-40721D01*
X22171Y-40815D01*
X22099Y-40887D01*
X22005Y-40926D01*
X21303Y-40926D01*
X21209Y-40887D01*
X21137Y-40815D01*
X21098Y-40721D01*
X21098Y-40019D01*
X21137Y-39925D01*
X21209Y-39853D01*
X21281Y-39823D01*
X20138Y-39823D01*
X20138Y-43937D01*
X38758Y-43937D01*
X38758Y-43937D01*
G37*
G54D19*
X38758Y-43937D02*
X38758Y-40413D01*
X38690Y-40413D01*
X38524Y-40344D01*
X38397Y-40217D01*
X38328Y-40051D01*
X38328Y-39982D01*
X23328Y-39982D01*
X23207Y-39958D01*
X23105Y-39890D01*
X23038Y-39823D01*
X22026Y-39823D01*
X22099Y-39853D01*
X22171Y-39925D01*
X22210Y-40019D01*
X22210Y-40721D01*
X22171Y-40815D01*
X22099Y-40887D01*
X22005Y-40926D01*
X21303Y-40926D01*
X21209Y-40887D01*
X21137Y-40815D01*
X21098Y-40721D01*
X21098Y-40019D01*
X21137Y-39925D01*
X21209Y-39853D01*
X21281Y-39823D01*
X20138Y-39823D01*
X20138Y-43937D01*
X38758Y-43937D01*
G54D10*
G36*
X22253Y-54665D02*
X22404Y-54303D01*
X22809Y-53899D01*
X23337Y-53681D01*
X23909Y-53681D01*
X24384Y-53878D01*
X29075Y-49188D01*
X29075Y-44646D01*
X20138Y-44646D01*
X20138Y-54665D01*
X22253Y-54665D01*
X22253Y-54665D01*
G37*
G54D19*
X22253Y-54665D02*
X22404Y-54303D01*
X22809Y-53899D01*
X23337Y-53681D01*
X23909Y-53681D01*
X24384Y-53878D01*
X29075Y-49188D01*
X29075Y-44646D01*
X20138Y-44646D01*
X20138Y-54665D01*
X22253Y-54665D01*
G54D10*
G36*
X38758Y-53780D02*
X38758Y-44646D01*
X29980Y-44646D01*
X29980Y-49237D01*
X25437Y-53780D01*
X38758Y-53780D01*
X38758Y-53780D01*
G37*
G54D19*
X38758Y-53780D02*
X38758Y-44646D01*
X29980Y-44646D01*
X29980Y-49237D01*
X25437Y-53780D01*
X38758Y-53780D01*
G54D10*
G36*
X38917Y-58602D02*
X38917Y-57459D01*
X38887Y-57532D01*
X38815Y-57604D01*
X38721Y-57643D01*
X38019Y-57643D01*
X37925Y-57604D01*
X37853Y-57532D01*
X37814Y-57438D01*
X37814Y-56736D01*
X37853Y-56642D01*
X37925Y-56570D01*
X38019Y-56531D01*
X38721Y-56531D01*
X38815Y-56570D01*
X38887Y-56642D01*
X38917Y-56714D01*
X38917Y-55531D01*
X38850Y-55464D01*
X38782Y-55362D01*
X38758Y-55241D01*
X38758Y-54488D01*
X25122Y-54488D01*
X24976Y-54633D01*
X25059Y-54833D01*
X25059Y-55405D01*
X24840Y-55933D01*
X24435Y-56337D01*
X23907Y-56555D01*
X23335Y-56555D01*
X23287Y-56535D01*
X23287Y-58602D01*
X38917Y-58602D01*
X38917Y-58602D01*
G37*
G54D19*
X38917Y-58602D02*
X38917Y-57459D01*
X38887Y-57532D01*
X38815Y-57604D01*
X38721Y-57643D01*
X38019Y-57643D01*
X37925Y-57604D01*
X37853Y-57532D01*
X37814Y-57438D01*
X37814Y-56736D01*
X37853Y-56642D01*
X37925Y-56570D01*
X38019Y-56531D01*
X38721Y-56531D01*
X38815Y-56570D01*
X38887Y-56642D01*
X38917Y-56714D01*
X38917Y-55531D01*
X38850Y-55464D01*
X38782Y-55362D01*
X38758Y-55241D01*
X38758Y-54488D01*
X25122Y-54488D01*
X24976Y-54633D01*
X25059Y-54833D01*
X25059Y-55405D01*
X24840Y-55933D01*
X24435Y-56337D01*
X23907Y-56555D01*
X23335Y-56555D01*
X23287Y-56535D01*
X23287Y-58602D01*
X38917Y-58602D01*
G54D10*
G36*
X47491Y-57914D02*
X48174Y-57231D01*
X48174Y-57230D01*
X48175Y-57230D01*
X50433Y-54971D01*
X50433Y-54488D01*
X39823Y-54488D01*
X39823Y-56666D01*
X39886Y-56661D01*
X39837Y-56612D01*
X39895Y-56554D01*
X39944Y-56603D01*
X39958Y-56451D01*
X40212Y-56346D01*
X40507Y-56342D01*
X40782Y-56451D01*
X40796Y-56603D01*
X40370Y-57029D01*
X40312Y-57087D01*
X40370Y-57145D01*
X40796Y-57571D01*
X40782Y-57723D01*
X40528Y-57828D01*
X40233Y-57832D01*
X39958Y-57723D01*
X39944Y-57571D01*
X39895Y-57620D01*
X39837Y-57562D01*
X39886Y-57513D01*
X39823Y-57507D01*
X39823Y-57914D01*
X40233Y-57914D01*
X40854Y-57914D01*
X40854Y-57513D01*
X40428Y-57087D01*
X40854Y-56661D01*
X41006Y-56675D01*
X41111Y-56929D01*
X41115Y-57224D01*
X41006Y-57499D01*
X40854Y-57513D01*
X40854Y-57914D01*
X47491Y-57914D01*
X47491Y-57914D01*
G37*
G54D19*
X47491Y-57914D02*
X48174Y-57231D01*
X48174Y-57230D01*
X48175Y-57230D01*
X50433Y-54971D01*
X50433Y-54488D01*
X39823Y-54488D01*
X39823Y-56666D01*
X39886Y-56661D01*
X39837Y-56612D01*
X39895Y-56554D01*
X39944Y-56603D01*
X39958Y-56451D01*
X40212Y-56346D01*
X40507Y-56342D01*
X40782Y-56451D01*
X40796Y-56603D01*
X40370Y-57029D01*
X40312Y-57087D01*
X40370Y-57145D01*
X40796Y-57571D01*
X40782Y-57723D01*
X40528Y-57828D01*
X40233Y-57832D01*
X39958Y-57723D01*
X39944Y-57571D01*
X39895Y-57620D01*
X39837Y-57562D01*
X39886Y-57513D01*
X39823Y-57507D01*
X39823Y-57914D01*
X40233Y-57914D01*
X40854Y-57914D01*
X40854Y-57513D01*
X40428Y-57087D01*
X40854Y-56661D01*
X41006Y-56675D01*
X41111Y-56929D01*
X41115Y-57224D01*
X41006Y-57499D01*
X40854Y-57513D01*
X40854Y-57914D01*
X47491Y-57914D01*
M02*
